<?xml version="1.0" encoding="UTF-8" standalone="no"?><!DOCTYPE svg PUBLIC "-//W3C//DTD SVG 1.1//EN" "http://www.w3.org/Graphics/SVG/1.1/DTD/svg11.dtd"><svg width="100%" height="100%" viewBox="0 0 90 90" version="1.1" xmlns="http://www.w3.org/2000/svg" xmlns:xlink="http://www.w3.org/1999/xlink" xml:space="preserve" xmlns:serif="http://www.serif.com/" style="fill-rule:evenodd;clip-rule:evenodd;stroke-linejoin:round;stroke-miterlimit:2;"><g id="Song_GEfOhGvhWkVRrSNxu62EPljqMezf8ta5QUxS.png"><path d="M38.427,79.33c-24.829,-2.314 -23.3,-31.118 -6.104,-36.897c10.722,-3.603 17.731,3.103 18.13,3.086c2.079,-0.088 0.729,-17.547 1.122,-32.779c0.015,-0.565 1.423,-8.367 7.01,0.896c6.402,10.614 16.129,7.424 13.813,13.08c-2.408,5.88 -15.002,-6.446 -14.978,-1.987c0.194,36.916 3.781,52.161 -18.992,54.601Zm0.003,-6.015c-17.591,-2.507 -13.878,-18.932 -7.773,-23.279c17.579,-12.516 32.442,20.54 7.773,23.279Z" fill="currentColor"/></g></svg>
